<?xml version="1.0" encoding="utf-8"?>
<!-- Generator: Adobe Illustrator 21.0.0, SVG Export Plug-In . SVG Version: 6.00 Build 0)  -->
<svg version="1.1" id="Layer_1" xmlns="http://www.w3.org/2000/svg" xmlns:xlink="http://www.w3.org/1999/xlink" x="0px" y="0px"
	 viewBox="0 0 369.2 153.5" style="enable-background:new 0 0 369.2 153.5;" xml:space="preserve">
<style type="text/css">
	.st0{clip-path:url(#SVGID_2_);}
</style>
<g>
	<defs>
		<rect id="SVGID_1_" width="369.2" height="153.5"/>
	</defs>
	<clipPath id="SVGID_2_">
		<use xlink:href="#SVGID_1_"  style="overflow:visible;"/>
	</clipPath>
	<path class="st0" d="M367.9,128.1c-7.2-1-14.1-2.6-21-2.8c-7.2-0.2-14.1-1.6-21.2-2.3c-13.9-1.3-27.8-2.9-41.8-3.9
		c-23.7-1.7-47.4-1.9-71.1-1.2c-16.1,0.5-32.3,1.3-48.3,3.1c-17.6,2-35.2,3.9-52.5,7.5c-7.3,1.5-14.7,2.4-22.1,3.7
		c-5.3,0.9-10.5,1.9-15.7,3.2c-11.8,2.9-23.4,6.1-35.2,9c-9.1,2.2-18,4.7-26.7,8c-3.4,1.3-6.9,1.9-9.9-0.8c-4.1-3.7-2.5-12,3.1-13.7
		c9.4-2.9,18.8-5.8,28.3-8.3c13.2-3.4,26.5-6.4,39.8-9.3c9-2,18.1-3.5,27.2-5.1c9.7-1.7,19.5-3.2,29.3-4.8c4.8-0.7,9.6-1.4,14.5-1.9
		c9-1,18-2,27.1-2.7c12.7-0.9,25.3-1.3,38-2c20-1,40-0.6,59.9,0.5c14,0.7,27.9,2.3,41.8,3.9c12.4,1.5,24.8,3.3,37.1,5.4
		c5.8,1,11.5,3,17,5.1C369.5,120.3,370.3,124,367.9,128.1"/>
	<path class="st0" d="M98.5,40.8c2.5-3,3.4-6.2,2.8-9.1c-0.5-2.1-2-5.1-6.9-7.4c-1.3-0.6-2.7-0.9-4-1.2c-0.5-0.1-0.9-0.2-1.4-0.3
		c-3.3-0.8-6.6-1.7-9.9-2.5l-2.8-0.7c-2.6-0.7-5.2-1.3-7.8-2C62.4,16,56.1,14.4,49.9,13c-4.4-0.9-18.2-4.4-20.7,1.5
		c-1.4,3.3,4.1,7.9,6.5,9.3c3.5,2,7.6,2.5,11.5,3c0.8,0.1,1.7,0.2,2.5,0.3c-0.1,0.6-0.3,1.2-0.4,1.7c-0.6,2.8-1.2,5.5-1.7,8.2
		c-2,12.2-5.5,24.2-8.9,35.8c-1,3.3-1.9,6.6-2.9,10c-0.3,0.9-0.8,1.8-1.4,2.3c-2.8,2.2-4.3,5.1-4.7,9.2l-0.1,1l8.8,9.5l1.2-0.3
		c4.9-1.1,5.5-4.8,5.8-6.9l0.1-0.5c0.6-3.3,2.4-5.8,5.4-7.4c7.1-3.7,12.5-9.3,17.7-14.7c0.7-0.8,1.5-1.5,2.2-2.3
		c8.7-8.9,16.8-18.8,24.6-28.3L98.5,40.8z M82.5,35.5c-1.1,2.1-2.9,3.9-4.7,5.8C76.1,43,74.4,44.8,73,47c-1.9,3-4.6,5.6-7.5,8.3
		c-1.3,1.2-2.6,2.4-3.8,3.7c-2.5,2.5-4.9,5.1-7.6,7.8c0-0.1,0.1-0.2,0.1-0.4c1.3-5.6,2.6-10.9,3.4-16.2c0.8-5.3,1.2-10.6,1.7-16.2
		c0.1-1.6,0.2-3.3,0.4-4.9L82.5,35.5z"/>
	<path class="st0" d="M242.6,28c1.8-5.1-0.4-11.2-5.3-14.5l-2.2-1.5l-1,2.5c-6.8,16.2-13.7,32.1-23.6,47c-0.7-1.6-1.3-3.1-1.8-4.6
		c-1.2-3.2-2.4-6.4-3.6-9.6c-2.1-5.6-4.2-11.2-6.4-16.8c-1.1-2.8-2.5-5.4-3.5-7.3c-1.7-3-4.4-4.7-7.8-4.8
		c-6.9-0.2-11.6,2.6-13.7,8.4c-0.6,1.8-1.5,3.6-2.4,5.5c-1,2-2,4-3.1,6c-3.2,6.3-6.5,12.7-10.1,18.9c-1.8,3.2-2.4,6.2-1.8,9.8
		c0.2,1.5,0.8,4.9,4.5,5.7c3.6,0.8,5.1-1.9,5.9-3.2l2.4-3.9c1.9-3,3.8-6.1,5.6-9.1l1.3-2.1c1.8-3,3.7-6,5.3-9.2
		c1.5-3,2.9-6.1,4.4-9.3c0.1-0.2,0.2-0.5,0.3-0.7c0.2,0.4,0.3,0.7,0.5,1l1.6,4.2c5,13.2,10.2,26.9,15.2,40.4c1.5,4,3.7,7.9,9.7,8.5
		l1.4,0.2l0.7-1.3c0.2-0.4,0.5-0.8,0.8-1.3c0.7-1.1,1.5-2.4,2-3.8c2.5-7,5.9-13.9,11.2-22.6l1-1.7c3-5,6.2-10.1,7.6-15.7
		c1.2-4.9,2.9-9.5,4.6-14.4L242.6,28z"/>
	<path class="st0" d="M142.9,16.4c-3.6-0.9-8-0.8-11-1.7c-3.2-1-7.2-4.9-10.2-5.3c-5.1-0.6-13.6,11.2-10.2,15.7
		c1.2,1.6,0.9,3.1,0.2,5.8l-0.2,0.8c-0.5,2.1-1,4.3-1.5,6.4c-0.8,3.4-1.6,6.9-2.6,10.3c-2.6,9.3-5.6,19.4-9.4,31.6
		c-0.9,2.9-1.8,7.3,1,11.6l0.8,1.3l1.5-0.3c5.1-1.1,6.6-2,8.1-6.7c1.9-5.8,3.8-11.7,5.7-17.6l1.6-5c4.2,1.5,7.8,4,11.5,6.7l1.8,1.3
		c1.9,1.4,3.9,2.8,6.1,3.8c2.8,1.3,4.7,0.5,5.6-0.1c1.6-1.1,2.5-3.1,2.4-5.7c-0.1-2.5-1.1-4.1-3.2-5.5c-1.7-1.1-3.4-2.3-5-3.4
		c-3.4-2.5-6.9-5-11-6.6l12.9-14.1c2.3-2.5,4.6-5,6.8-7.5c1-1.1,2-2.2,2.8-3.5c1.8-2.8,2.3-5.6,1.4-7.9
		C147.8,18.3,145.6,17.1,142.9,16.4 M131.8,26.6c-2.8,3.8-5.8,7.2-8.9,10.5l1.9-10.8c1.5-0.5,3.1-0.3,5,0
		C130.5,26.5,131.1,26.6,131.8,26.6"/>
	<path class="st0" d="M302,11.5l-1.8,0.9c-0.5,0.3-1.1,0.5-1.6,0.7c-1.4,0.6-2.8,1.2-4.1,2.2c-4.6,3.3-9.2,6.7-13.7,10.1l-4,3
		c-2.5,1.9-5,3.7-7.6,5.7c0.2-0.8,0.4-1.5,0.6-2.2l0.5-1.5c1.9-6.1,0.8-7-6.3-11.1l-1.3,1.8l1.1-1.9l-2.3-1.3l-1.7,5
		c-0.7,2.1-1.4,4.2-2.2,6.2c-1.2,3.4-2.4,6.8-3.7,10.2c-2.8,7.8-5.7,15.9-8.3,23.9c-1.3,4-1.9,8.2-2.6,12.2c-0.2,1.5-0.5,3-0.7,4.4
		c-0.6,3.5,1.1,6.5,4.2,7.5c0.6,0.2,1.2,0.3,1.8,0.2c1.6-0.1,3.4-1.2,4.6-4.6c0.8-2.3,1.5-4.6,2.3-6.8c0.5-1.7,1.1-3.4,1.7-5
		c1.7-5,3.4-10,5-14.9l1.3-3.8c2,0.8,3.9,1.6,5.9,2.4c6.4,2.6,12.4,5.1,18.6,7.6c2,0.8,5,1.7,7.4,0.1c2.5-1.7,2.7-5.4,2.7-7.9l0-1.4
		l-19.6-8.5c0.7-0.6,1.3-1.1,2-1.6c2-1.6,4-3.1,5.9-4.7c4.9-3.9,9.9-7.9,15-11.6c5.5-4,6-7.3,2.2-13.4L302,11.5z"/>
	<path class="st0" d="M355.5,2c-6-4-11.7-1-13.7,0.1c-5.1,2.8-10.4,5.6-14,10.9c-1.7,2.6-3.9,4.9-6.2,7.3c-1.6,1.8-3.3,3.6-4.9,5.5
		c-4.1,5.1-3.5,10.3,1.5,14.4c3.1,2.6,6.4,4.9,10.1,7.4c2.6,1.8,5.2,4,7,7.8c-0.3,0.2-0.7,0.5-1,0.7c-1.5,1.1-3,2.2-4.4,2.5
		c-8.4,1.9-9.4,7.3-9.4,11.9c0,2.9,1,5,2.8,6c1,0.6,2.1,0.8,3.5,0.8c1-0.1,2.1-0.3,3.3-0.7c1.8-0.7,3.5-1.5,5.2-2.3
		c1.7-0.8,3.2-1.5,4.9-2.1c4.7-1.7,8.4-4.8,10.8-9.3c1.1-2,1.8-5.1,0.6-7.3l-0.1-0.3c-3.8-7.1-7.7-14.5-15.7-19.4
		c-1.7-1-3.3-2.3-5-3.6c-0.3-0.2-0.6-0.4-0.9-0.7l2.5-2.8c2.6-2.9,5-5.7,7.4-8.4l1.3-1.5c3.4-3.9,6.7-7.6,11.5-9.8
		c1.6-0.7,2.3-2.1,2.8-3.3c0.2-0.4,0.3-0.7,0.5-1l1.1-1.7L355.5,2z"/>
</g>
</svg>
