<?xml version="1.0" encoding="utf-8"?>
<!-- Generator: Adobe Illustrator 21.0.0, SVG Export Plug-In . SVG Version: 6.00 Build 0)  -->
<svg version="1.1" id="Layer_1" xmlns="http://www.w3.org/2000/svg" xmlns:xlink="http://www.w3.org/1999/xlink" x="0px" y="0px"
	 viewBox="0 0 8 40" style="enable-background:new 0 0 8 40;" xml:space="preserve">
<path d="M4,40L4,40c-2.2,0-4-1.8-4-4v0c0-2.2,1.8-4,4-4h0c2.2,0,4,1.8,4,4v0C8,38.2,6.2,40,4,40z"/>
<path d="M4,24L4,24c-2.2,0-4-1.8-4-4v0c0-2.2,1.8-4,4-4h0c2.2,0,4,1.8,4,4v0C8,22.2,6.2,24,4,24z"/>
<path d="M4,8L4,8C1.8,8,0,6.2,0,4v0c0-2.2,1.8-4,4-4h0c2.2,0,4,1.8,4,4v0C8,6.2,6.2,8,4,8z"/>
</svg>
