<?xml version="1.0" encoding="utf-8"?>
<!-- Generator: Adobe Illustrator 21.0.0, SVG Export Plug-In . SVG Version: 6.00 Build 0)  -->
<svg version="1.1" id="Layer_1" xmlns="http://www.w3.org/2000/svg" xmlns:xlink="http://www.w3.org/1999/xlink" x="0px" y="0px"
	 viewBox="0 0 92 12" style="enable-background:new 0 0 92 12;" xml:space="preserve">
<style type="text/css">
	.st0{clip-path:url(#SVGID_2_);fill-rule:evenodd;clip-rule:evenodd;}
</style>
<g>
	<defs>
		<rect id="SVGID_1_" width="92" height="12"/>
	</defs>
	<clipPath id="SVGID_2_">
		<use xlink:href="#SVGID_1_"  style="overflow:visible;"/>
	</clipPath>
	<path class="st0" d="M83.2,9.1C83.2,9.1,83.2,9.1,83.2,9.1C83.2,9.1,83.2,9.1,83.2,9.1C83.2,9.1,83.2,9.1,83.2,9.1L83.2,9.1z"/>
	<path class="st0" d="M85.3,9.2C85.3,9.2,85.3,9.2,85.3,9.2C85.3,9.2,85.3,9.2,85.3,9.2C85.3,9.2,85.3,9.2,85.3,9.2
		C85.3,9.2,85.3,9.2,85.3,9.2"/>
	<path class="st0" d="M67.3,6.7c-0.2-0.1-0.3,0-0.5,0.1c0.1,0.1,0.2,0.2,0.5,0.2c0.4,0,0.7,0,1.1,0.1c0.2,0,0.3,0.1,0.3,0.2
		c-0.5,0.1-1,0-1.5,0c-0.5,0-1-0.1-1.6,0c0.2,0.1,0.2,0.1,0.3,0.1c0.3,0,0.7,0.1,1,0.1c1.1,0.1,2.1,0.3,3.2,0.3c0,0,0.1,0,0.1,0
		c0.3,0.2,0.8,0.1,1.2,0.2c0.1,0.1,0,0.1-0.1,0.1c-0.2,0-0.3,0-0.6,0c0.5,0.1,1,0.1,1.5,0.2c0.5,0,0.9,0.1,1.4,0.1
		c0.5,0,0.9,0.1,1.4,0.1c-0.3,0.2-0.7,0.1-1,0.1c-1.4-0.1-2.7-0.2-4.1-0.3c-0.2,0-0.5,0-0.7,0.1c0.2,0,0.3,0.1,0.5,0.1
		c0.1,0,0.3,0,0.3,0c0.5,0.2,1,0.2,1.5,0.2c0.4,0,0.8,0.1,1.2,0.2c0.1,0,0.2,0.1,0.5,0.1c-0.3,0-0.5,0-0.6,0c-0.7-0.1-1.3-0.1-2-0.1
		c-0.5,0-1,0-1.5-0.1c-0.3,0-0.7,0-0.8,0.1c-0.3,0-0.6,0-0.8,0c-0.2,0-0.5,0-0.8,0C66.7,9,67,8.9,67.2,9c0.2,0,0.5,0.1,0.7,0.1
		c0.3,0,0.5,0,0.8,0C69,9.3,69,9.3,69.6,9.3c-0.1,0.1-0.3,0.1-0.4,0.1c-0.1,0-0.2,0-0.3,0c-0.9,0.2-1.7,0-2.6,0
		c-0.4,0-0.7-0.1-1.1-0.1c-0.9,0-1.9-0.1-2.8-0.1C61.7,9.1,60.9,9,60.1,9C60,9,60,9,59.9,9c0,0.1,0,0.1,0.1,0.1c1,0.1,2,0.1,2.9,0.2
		c0.9,0,1.7,0.1,2.6,0.2c-0.7,0-1.3,0-2,0c-0.9-0.1-1.7-0.1-2.6-0.1c-0.1,0-0.3,0-0.4,0.1c0,0,0.1,0,0.1,0.1c1.7,0.1,3.4,0.2,5,0.3
		c0.9,0.1,1.8,0.1,2.6,0.2c0.5,0,1,0.1,1.5,0.1c0.4,0,0.9,0.1,1.3,0.1c0.2,0,0.5,0.1,0.7,0.2c-0.4,0-0.8,0-1.2,0
		c-0.7,0-1.4-0.1-2-0.1c-0.5-0.1-1.1-0.1-1.6-0.1c-0.8,0-1.7-0.1-2.5-0.1c-0.2,0-0.4,0-0.5,0.1c0.1,0.1,0.3,0.1,0.4,0.1
		c0.8,0.1,1.5,0.1,2.3,0.2c1.1,0.1,2.2,0.1,3.4,0.3c-0.5,0-0.8,0-1.1,0c-1.1-0.1-2.2-0.1-3.3-0.2c-0.7,0-1.5,0-2.3,0
		c0.3,0,0.6,0.1,0.9,0.1c-0.5,0.1-0.9,0-1.4-0.1c-0.7-0.1-1.4,0-2,0c-0.2,0-0.1,0.1-0.1,0.1c-0.3,0-0.6,0-1,0c-0.7,0-1.3,0-2-0.1
		c-0.2,0-0.3,0-0.4,0.1c0.1,0,0.2,0,0.3,0c0.5,0,1.1,0.1,1.6,0.1c0.5,0,1.1,0,1.6,0.1c0.7,0,1.4,0.1,2.1,0.1c0.3,0,0.6,0.1,0.9,0.2
		c-0.2,0-0.3,0-0.5,0.1c0,0.1,0.1,0.1,0.1,0.2c-0.1,0-0.1,0-0.2,0c-0.2,0-0.3-0.1-0.6-0.1c-0.2,0-0.4,0-0.6,0c-0.2,0-0.5,0-0.7,0
		c-0.2,0-0.4,0-0.6,0c-0.2,0-0.4-0.1-0.6-0.1c-0.5,0-0.9,0-1.3,0c-1.1,0-2.1-0.1-3.2-0.1c-0.3,0-0.5,0-0.8,0c-1.3,0-2.6-0.1-3.9-0.1
		c-0.5,0-1-0.1-1.5,0c-0.2,0-0.3,0-0.3,0.1c0.4,0.1,0.9,0.1,1.3,0.1c0.5,0,0.9,0,1.4,0c0.4,0,0.9,0,1.3,0c0.4,0,0.9,0,1.3,0
		c0.4,0,0.9,0.1,1.3,0.1c0.5,0,0.9,0,1.4,0c0.4,0,0.9,0.1,1.3,0.1c0.4,0,0.8,0,1.4,0c-0.2,0-0.2,0.1-0.3,0.1c-0.7,0-1.4,0-2.2,0
		c-0.2,0-0.4,0-0.6,0c-0.5,0-1,0-1.5,0c-1-0.1-2,0-3-0.1c-0.3,0-0.6,0-0.9,0c-0.3,0-0.5,0-0.7-0.1c0,0-0.1,0-0.2,0
		c-0.1,0-0.2,0-0.3,0c-0.2,0-0.3-0.1-0.5,0c-0.1,0-0.2,0-0.3,0c-0.3-0.1-0.5,0-0.8,0c-0.1,0-0.2,0-0.3,0c-0.1,0-0.2-0.1-0.4,0
		c-0.1,0-0.2,0-0.3,0c-0.2,0-0.4-0.1-0.7,0c-0.2,0-0.4,0-0.6,0c-0.1,0-0.2,0-0.3,0c-0.2,0-0.4,0-0.6,0c-0.2,0-0.3,0-0.5,0
		c-0.1,0-0.2,0-0.2,0c-0.1,0-0.2,0-0.3,0c-0.2,0-0.3-0.1-0.5,0c-0.1,0-0.4,0-0.5,0c-0.1,0-0.3,0-0.4,0c-0.1-0.1,0-0.1,0.1-0.1
		c0.3,0,0.6,0,0.9,0c0.1,0,0.2,0,0.4-0.1c-0.1,0-0.2-0.1-0.3-0.1c-1,0-1.9-0.1-2.9-0.1c-0.2,0-0.5-0.1-0.7,0c-0.8,0-1.6-0.1-2.4,0.1
		c-0.3,0-0.7,0-1,0c-0.5,0-1-0.1-1.4,0c-0.2,0-0.3-0.1-0.5,0c-1.2,0-2.5,0-3.7,0c-1.2,0-2.3,0-3.5,0c-0.2,0-0.4,0-0.6,0
		c-1.2,0-2.5,0-3.7,0c-0.3,0-0.7,0-1,0c-0.5,0-0.5,0-0.6,0.2c0,0,0,0-0.1,0.1c-0.3,0-0.7,0-1.1,0c-1.5,0-3,0-4.5,0c-1,0-2.1,0-3.1,0
		c-0.3,0-0.6,0-0.8,0c-0.1,0-0.3,0-0.4,0c-0.2,0-0.3,0-0.5,0c-0.3,0-0.6,0-0.8,0c-0.2,0-0.5,0-0.7,0c-0.3,0-0.7,0-1-0.1
		c-0.5-0.1-1-0.1-1.5-0.1c-0.4,0-0.8,0-1.1,0c-1.1,0-2.1-0.1-3.2-0.1c-0.1,0-0.2,0-0.3,0c-0.3-0.1-0.6-0.1-1-0.1
		c0.8-0.1,1.5,0,2.3,0c-0.1-0.1-0.2-0.2-0.5-0.2c-0.4,0-0.8,0-1.3,0c-0.5,0-0.9,0-1.4,0c-0.8-0.1-0.8,0-1.5-0.3
		C0.2,10,0.3,9.9,0.4,9.8c0.2-0.2,0.2-0.2-0.2-0.3c0.3-0.3,0.3-0.3,0.5-0.4C0.7,9,0.5,8.9,0.4,8.8c-0.1-0.1,0-0.2,0-0.3
		c0.1,0,0.2,0,0.3,0c-0.1,0-0.1-0.1-0.2-0.1c0-0.1,0.1-0.1,0.2-0.2C0.5,8.1,0.4,8,0.3,7.9C0.5,7.8,0.7,7.6,1,7.5
		c0.1,0,0.2,0,0.3-0.1c0.1,0,0.3,0,0.4,0c0,0,0.1,0,0.1-0.1c-0.2-0.1-0.5,0-0.7,0C0.9,7.3,0.8,7.2,0.9,7C1.4,7,2.1,7,2.7,6.9
		C2.6,6.7,2.2,6.8,2,6.7c-0.3,0-0.5,0.1-0.7,0.1C1.1,6.8,1,6.8,0.8,6.7c-0.1,0-0.3-0.1-0.3-0.2c0,0,0,0,0-0.1
		C0.4,6.4,0.1,6.4,0.1,6.3c0-0.1,0.2-0.2,0-0.3C0,5.9,0.1,5.8,0.2,5.7c0.1-0.1,0.2-0.2,0.4-0.3C0.4,5.3,0.2,5.2,0.3,5.1
		c0-0.1-0.1-0.2-0.1-0.2c0,0,0.1-0.1,0.2-0.2C0.1,4.4,0.1,4.1,0,3.7c0.1-0.1,0.3-0.1,0.4-0.2c0-0.1,0.2-0.2,0-0.4c0,0,0-0.1,0.1-0.1
		C0.6,3,0.8,2.9,0.9,2.9C0.8,2.7,0.6,2.7,0.3,2.6c0.1-0.1,0.2-0.2,0.3-0.2c-0.1,0-0.2-0.1-0.3-0.1c0-0.1,0.1-0.1,0.1-0.2
		C0.9,2,1.2,1.8,1.7,1.8c0.7,0,1.3-0.1,1.9-0.2c0.1,0,0.2-0.1,0.3-0.1c0,0,0-0.1-0.1-0.2c0,0,0,0,0-0.1C4.4,1.1,5,1.1,5.6,1.1
		c0.1,0,0.2,0.1,0.3,0c0.5-0.1,1.1,0,1.7-0.1c0.3,0,0.5-0.1,0.8-0.1c0,0,0,0,0-0.1l0,0c0,0-0.1-0.1-0.1-0.1c-0.2,0-0.5,0-0.8,0
		c-0.3,0-0.6,0-0.9,0c-0.3,0-0.6,0-0.9,0c-0.3,0-0.6,0-0.9,0c-0.3,0-0.6,0-1,0c0.1-0.1,0.1-0.2,0.2-0.3c0.2,0,0.5,0,0.7,0
		c0.6,0,1.1,0,1.7,0c0.4,0,0.7,0,1.1,0c0.1,0,0.2,0,0.1-0.1c-0.2,0-0.5,0-0.7,0c-0.3,0-0.5,0-0.7,0c-0.2,0-0.5,0-0.7,0
		c0-0.1,0.1-0.1,0.2-0.1c0.4,0,0.7,0,1.1,0c0.4,0,0.8,0,1.3,0c0,0,0.1,0,0.1,0c1.5,0,3,0.1,4.6,0.1c1,0,1.9,0,2.9,0
		c0.8,0,1.6,0,2.5,0c0.4,0,0.7,0,1.1,0c0.6,0,1.2,0,1.8,0c0.2,0,0.5,0,0.7,0c0.1,0,0.3,0,0.4,0c0.4,0.1,0.8,0.1,1.2,0.1
		c0.4,0,0.8,0,1.2,0c0.7,0,1.4,0,2,0c0.4,0,0.9,0,1.3,0c0.1,0,0.1,0,0.2,0c0.7-0.1,1.4,0,2.2-0.1c0.7,0,1.4,0,2.1,0
		c1.1,0,2.3,0,3.4,0c0.3,0,0.6,0,1-0.1c0.3,0,0.7,0,1,0c0.3,0,0.5,0,0.7,0.1c0.2,0,0.5-0.1,0.7-0.1c0.2,0,0.4,0,0.6,0
		c0.8,0,1.6-0.1,2.5-0.1c0.5,0,1,0,1.5,0c0.1,0,0.2,0,0.3,0.1c0.1,0,0.2,0,0.3,0c0.2-0.1,0.4-0.1,0.6-0.1c0.7,0,1.4,0,2.1,0
		c0.2,0,0.4,0,0.6,0.1c0.1,0,0.3-0.1,0.4-0.1c0.1,0,0.3,0,0.4,0c0.8,0,1.5,0,2.3,0c0.9,0,1.7,0,2.6,0c0.5,0,1.1,0,1.6,0
		c0.3,0,0.6,0,0.8,0c0.2,0,0.5,0,0.7,0c0.7,0,1.4,0,2,0c0,0.1-0.1,0.1-0.1,0.2c0.1,0,0.2,0,0.3,0c0.3,0,0.5,0,0.7,0.1
		c0.3,0.1,0.6,0,0.9,0c0.6,0,1.3,0,1.9,0c0.4,0,0.7,0,1.1,0c0.3,0,0.7,0,1.1,0c0.2,0,0.4,0,0.6,0.1c0.1,0,0.2,0,0.3,0
		c1.1,0,2.3,0,3.4,0c0.1,0,0.2,0,0.3,0c0.2,0,0.2,0.1,0.1,0.2c0.3,0,0.5,0,0.8,0c0.9,0,1.9,0,2.8,0c0.5,0,0.9,0,1.4,0
		c0.4,0,0.8,0,1.3,0c0.2,0,0.3,0.1,0.3,0.2c0.2,0,0.4,0,0.5-0.1c0.1,0,0.3,0.1,0.2,0.1c0,0-0.1,0.1-0.2,0.1c-0.2,0-0.5,0-0.7,0
		c-0.1,0-0.3,0.2-0.6,0.1c0,0-0.1-0.1-0.1-0.1c-0.4,0-0.7,0-1.1,0c-0.1,0-0.2,0-0.3,0.1C73,1.1,72.8,1,72.6,1c0,0.1-0.1,0.1-0.1,0.2
		c-0.2,0-0.5,0-0.7,0c-0.4,0-0.7,0-1.1,0.1c-0.1,0-0.2,0-0.3,0.1c0.2,0.1,0.5,0,0.7,0.1c0.3,0,0.3-0.1,0.5-0.2
		c0.1,0.1,0.3,0.1,0.5,0.1c0.2,0,0.4,0,0.6,0c0.1,0,0.1,0,0.2,0c0.7,0,1.4,0,2.1-0.1c0.5,0,1,0,1.5,0c-0.2,0.2-0.5,0.1-0.6,0.2
		c0,0.1,0.1,0.1,0.2,0.1c0.4,0,0.7,0,1.1,0c0.2,0,0.5,0,0.7,0.1c0.2,0.1,0.5,0.1,0.7,0.1c0.5,0,1,0,1.5,0c0,0,0.1,0,0.1,0
		c1.1-0.1,2.1,0.1,3.2,0c0.2,0,0.4,0,0.6,0c0.5,0,1,0,1.5,0.1c0.1,0,0.3,0,0.4,0c0.5,0.1,1,0.1,1.5,0.2c-0.9,0.1-1.8,0.1-2.7,0.1
		c-0.9,0-1.7,0.1-2.6,0.1c0.2,0.1,0.4,0.1,0.7,0.1c0.6,0,1.1,0,1.7,0c0.3,0,0.6,0,0.8,0.1c0.1,0,0.3,0,0.4,0c0.3,0,0.5,0,0.8,0
		c0.2,0,0.3,0.1,0.6,0.1c0.2,0,0.4,0,0.8,0c-0.4,0.1-0.6,0.1-0.9,0.1l0,0c0.3,0,0.5,0,0.8,0c-1,0.1-2,0-3,0.1c0,0,0.1,0.1,0.1,0.1
		c0.2,0,0.3,0,0.5,0c0.4,0,0.8,0.1,1.2,0.1c0.1,0,0.2,0.1,0.4,0.1c-0.2,0-0.2,0.1-0.3,0.1c-0.5,0-1,0-1.5,0c-0.2,0-0.3,0-0.5,0.1
		c0.4,0.1,0.4,0.1,1,0.1c0.4,0,0.8,0,1.1,0c0.3,0,0.7,0,1.1,0c-0.1,0.1-0.2,0.1-0.3,0.2c0,0.1,0.3,0,0.3,0.1c0,0,0,0,0,0
		c-0.3,0-0.6,0-0.8,0c-0.5,0-0.9,0-1.4,0c-0.1,0-0.2,0-0.4,0.1c0.2,0,0.4,0.1,0.5,0.1c0.1,0,0.3,0,0.4,0.1c-0.7,0-1.5,0.1-2.2,0.1
		c-0.5,0-1,0-1.5,0c-0.5,0-0.9,0-1.4,0.1c-0.1,0-0.1,0-0.4,0.1c1.2,0.1,2.3,0,3.4,0.1c-0.6,0-1.3,0-2,0c0.1,0.1,0.2,0.1,0.3,0.1
		c0.3,0,0.5,0,0.8,0c0.3,0,0.7,0,1.2,0c-0.4,0.1-0.6,0.1-0.9,0.1c-0.8,0-1.6,0-2.3,0c-0.1,0-0.1,0-0.3,0.1C81.4,5,81.8,5,82.2,5
		c-0.2,0-0.4,0-0.7,0c-0.2,0-0.5,0-0.7,0c-0.2,0-0.4,0-0.7,0.1c-0.3,0.1-0.7,0.1-1.1,0c-0.1,0-0.3,0-0.4,0c-0.3,0.1-0.5,0-0.8,0.1
		c-0.2,0.1-0.5,0-0.8,0c0,0-0.2-0.1-0.3-0.1c-0.1,0-0.2,0.1-0.4,0.1c-0.1,0-0.2,0-0.3,0c0,0.1,0,0.2-0.1,0.3c0.1,0,0.3,0,0.4,0
		c0.5,0,0.9,0,1.4,0c0.1,0,0.2,0,0.4,0c0.7-0.1,1.5,0,2.2,0c0.3,0,0.6,0,0.9,0c0,0.1-0.2,0.1-0.3,0.2c-0.1,0.1-0.1,0.1-0.2,0.2
		c-0.1,0-0.3,0-0.4,0c-0.6,0-1.1,0-1.7,0c-0.6,0-1.2,0-1.8,0c-0.3,0-0.6,0-0.9,0c-0.5,0-1.1,0.1-1.6-0.1c0,0-0.1,0-0.1,0
		c-0.1,0.1-0.3,0.1-0.5,0.1c-0.5,0-1.1,0-1.6,0c-1.2,0-2.5,0-3.7,0c-0.2,0-0.4,0-0.6,0c0.5,0.1,0.5,0.1,2,0.2c-0.5,0-0.9,0-1.3,0
		c-0.1,0-0.2,0-0.3,0c-0.3,0.1-0.6,0.1-0.9,0.1c-0.1,0-0.1,0-0.2,0c-0.4,0.1-0.9,0-1.3,0c-0.1,0-0.3,0-0.4,0.1
		c0.2,0.1,0.6,0.1,0.9,0.2c0.3,0,0.6,0,0.8,0.1C67.4,6.5,67.4,6.6,67.3,6.7L67.3,6.7z M51,10.1c-0.2,0-0.3-0.1-0.3-0.2
		c0,0-0.1,0-0.1,0c0,0.1-0.1,0.1-0.1,0.2c-0.1,0-0.3,0-0.4,0c0-0.1,0.4-0.1,0.3-0.2c-0.2,0-0.5-0.1-0.8-0.1
		c-0.1,0.1-0.1,0.2-0.2,0.2c0,0-0.1,0.1-0.2,0.1c-0.1-0.1-0.1-0.2-0.2-0.2c-0.2,0-0.4,0-0.5,0c-0.2,0-0.3,0-0.4,0
		C48,9.8,48,9.8,47.4,9.8c-0.1,0-0.2,0.1-0.2,0.1c-0.2,0-0.3,0-0.5,0c-0.2,0-0.5,0-0.7,0c-0.4,0-0.8,0-1.3,0.1
		c-0.2,0-0.3,0.1-0.4,0.2c0.3,0.1,0.7,0.1,1.1,0.2c0.5,0,0.9,0,1.4,0c0.5,0,1.1,0,1.6,0c0.3,0,0.5,0,0.8,0c0.5,0,1,0,1.5,0
		c0.1,0,0.3,0,0.4,0c0.5,0.1,1.1,0,1.6,0c0.3,0,0.4-0.1,0.5-0.2c0-0.1,0-0.2,0.1-0.2c-0.1,0-0.2,0-0.2,0c-0.1,0.1-0.3,0.1-0.6,0.1
		c-0.1,0-0.2-0.1-0.2-0.1c0-0.1,0-0.1-0.1-0.2c-0.1,0.1-0.3,0.2-0.4,0.2C51.5,10,51.2,10,51,10.1 M21.3,1c-0.3,0-0.6,0-0.9,0
		c-0.3,0-0.6,0-0.9,0C19.2,1,18.9,1,18.6,1c-0.3,0-0.6,0.1-0.9,0c-0.3,0-0.6-0.1-0.9,0c0.1,0,0.1,0.1,0.2,0.1
		C18.4,1.1,19.8,1.2,21.3,1 M14.8,1c0,0.1,0.1,0.1,0.1,0.1c0.4,0,0.8,0,1.2,0c0,0,0.1-0.1,0.1-0.1C16.1,1,16.1,1,16,1
		C15.6,1,15.2,1,14.8,1 M9.3,0.9c-0.5-0.1-0.5-0.1-0.7,0H9.3z M24.8,0.9c0,0-0.1,0-0.2,0c-0.1,0-0.1,0-0.1,0.1c0,0,0.1,0.1,0.1,0.1
		C24.8,1,24.8,0.9,24.8,0.9 M16.5,1C16.5,1,16.5,1,16.5,1c-0.1,0-0.1,0-0.1,0C16.4,1,16.4,1.1,16.5,1C16.4,1.1,16.5,1,16.5,1
		 M13.7,1.2L13.7,1.2L13.7,1.2L13.7,1.2z"/>
	<path class="st0" d="M88.1,2.7C88.1,2.7,88.2,2.7,88.1,2.7c0.1-0.1,0.2-0.1,0.3-0.1c0.8,0,1.5,0,2.3,0c0.4,0,0.9,0,1.3,0.1
		c0,0.1-0.1,0.1-0.2,0.1C90.6,2.8,89.4,2.8,88.1,2.7C88.2,2.8,88.2,2.8,88.1,2.7"/>
	<path class="st0" d="M64.6,11.4c0.9-0.1,1.8,0,2.7,0c0.9,0,1.7,0.1,2.6,0.2c-0.8,0-1.6-0.1-2.4-0.2c-0.3,0-0.5,0-0.8-0.1
		C66,11.4,65.3,11.4,64.6,11.4"/>
	<path class="st0" d="M32.6,11.1c0.2-0.1,0.5-0.1,0.7-0.1c0.4,0,0.8,0,1.3,0c0.3,0,0.6,0,0.8,0c0.3,0,0.6,0,0.8,0
		c0.1,0,0.2,0,0.1,0.1c-0.1,0-0.1,0-0.2,0c-1.1,0-2.1,0-3.2,0C32.9,11.2,32.7,11.2,32.6,11.1"/>
	<path class="st0" d="M25.2,11.1c0.2,0,0.3,0,0.4,0c0.6,0,1.2,0,1.7,0c0.4,0,0.7,0,1.1,0.1c0,0,0,0,0,0.1c0,0-0.1,0-0.1,0
		c-0.9,0-1.9,0-2.8,0C25.4,11.2,25.4,11.1,25.2,11.1"/>
	<path class="st0" d="M31.5,11c0.1,0.1,0,0.2-0.1,0.2c-0.4,0-0.9,0-1.3,0c-0.2,0-0.4,0-0.6,0c-0.2,0-0.4,0.1-0.6-0.1
		c0.1,0,0.1-0.1,0.2-0.1c0.4,0,0.9,0,1.3,0C30.7,11,31.1,11,31.5,11"/>
	<path class="st0" d="M39.6,11.1c0.1,0.1-0.1,0.1-0.2,0.1c-0.4,0-0.9,0-1.3,0c-0.3,0-0.5,0-0.7,0c-0.1-0.1,0.1-0.1,0.1-0.1
		c0.5-0.1,1.1,0,1.6,0C39.3,11.1,39.5,11.1,39.6,11.1"/>
	<path class="st0" d="M77.7,1C77.8,1,77.9,1,77.9,1c0.5,0,1,0,1.5,0c-0.7,0.1-2.1,0.1-2.6,0C77.1,0.9,77.4,0.9,77.7,1L77.7,1z"/>
	<path class="st0" d="M40.7,11.1c0.1,0,0.2,0,0.3,0c0.4,0,0.9,0,1.3-0.1c0,0,0.1,0.1,0.1,0.1c0,0-0.1,0.1-0.1,0.1
		C41.8,11.2,41.3,11.3,40.7,11.1C40.7,11.2,40.7,11.2,40.7,11.1"/>
	<path class="st0" d="M78.5,1.4h-1.7c0.2-0.1,0.5,0,0.7,0C77.9,1.4,78.2,1.4,78.5,1.4"/>
	<path class="st0" d="M24.1,11.1c-0.1,0-0.1,0.1-0.2,0.1c-0.3,0-0.6-0.1-0.9,0c0,0-0.1,0-0.1-0.1c0,0,0.1-0.1,0.1-0.1
		C23.3,11,23.7,11,24.1,11.1C24,11.1,24,11.1,24.1,11.1"/>
	<path class="st0" d="M70.4,0.5c-0.2,0-0.4,0-0.6,0c-0.2,0-0.4,0-0.7,0C69.6,0.5,69.7,0.5,70.4,0.5"/>
	<path class="st0" d="M71.6,11.8c-0.3,0-0.7-0.1-1-0.1C71,11.7,71.3,11.7,71.6,11.8"/>
	<path class="st0" d="M65.8,11.9c-0.3,0.1-0.5,0.1-0.7,0C65.3,11.9,65.3,11.9,65.8,11.9"/>
	<path class="st0" d="M24.3,11.1c0.1-0.1,0.3-0.1,0.5-0.1c0,0,0.1,0,0.1,0.1c0,0,0,0.1,0,0.1C24.7,11.2,24.5,11.2,24.3,11.1"/>
	<path class="st0" d="M40.4,11.1c-0.3,0.1-0.3,0.1-0.5,0.1c0,0,0,0,0-0.1c0,0,0.1,0,0.1,0C40,11.1,40.2,11.1,40.4,11.1"/>
	<path class="st0" d="M1,10.5c-0.2-0.1-0.5,0-0.7-0.2C0.6,10.4,0.8,10.4,1,10.5C1,10.5,0.9,10.5,1,10.5L1,10.5z"/>
	<path class="st0" d="M4.3,0.2c0.3,0,0.5,0,0.6,0.1C4.7,0.3,4.6,0.3,4.3,0.2"/>
	<path class="st0" d="M85.2,4.8c0.1-0.1,0.1-0.1,0.3,0C85.4,4.8,85.3,4.8,85.2,4.8L85.2,4.8z"/>
	<path class="st0" d="M60.3,11.6c0.1,0,0.2-0.1,0.3-0.1c0,0,0.1,0,0.2,0c0,0,0,0,0,0c0,0-0.1,0-0.2,0C60.6,11.6,60.5,11.6,60.3,11.6
		"/>
	<path class="st0" d="M36.7,11.2C36.7,11.1,36.7,11.1,36.7,11.2c0.2,0,0.3,0,0.4,0c0,0,0,0,0,0C37,11.2,36.9,11.2,36.7,11.2
		C36.8,11.2,36.7,11.2,36.7,11.2"/>
	<path class="st0" d="M1.7,10.6C1.7,10.6,1.8,10.5,1.7,10.6c0.1,0,0.1,0,0.2,0c0,0,0,0,0,0C1.8,10.6,1.7,10.6,1.7,10.6"/>
	<path class="st0" d="M65.1,10.5C65.1,10.5,65.1,10.5,65.1,10.5c0.1,0,0.1,0,0.1,0.1C65.2,10.6,65.1,10.6,65.1,10.5
		C65.1,10.6,65,10.5,65.1,10.5C65,10.5,65.1,10.5,65.1,10.5"/>
	<path class="st0" d="M82.7,5c0.1,0,0.2,0,0.3,0c0,0,0,0,0,0C82.8,5,82.7,5.1,82.7,5C82.6,5,82.7,5,82.7,5"/>
	<path class="st0" d="M79.1,1.4h0.3c0,0,0,0,0,0L79.1,1.4C79.1,1.4,79.1,1.4,79.1,1.4"/>
	<path class="st0" d="M67.3,6.7c0.1-0.1,0.2-0.1,0.4-0.1C67.7,6.7,67.5,6.6,67.3,6.7C67.3,6.7,67.3,6.7,67.3,6.7"/>
	<path class="st0" d="M1,10.5c0.3-0.1,0.3-0.1,0.4,0C1.2,10.6,1.1,10.6,1,10.5C1,10.5,1,10.5,1,10.5"/>
	<path class="st0" d="M76.5,1C76.6,1,76.6,1,76.5,1C76.6,1.1,76.5,1.1,76.5,1C76.5,1.1,76.5,1.1,76.5,1C76.5,1,76.5,1,76.5,1"/>
	<path class="st0" d="M85.2,4.8c-0.1,0-0.2,0-0.3,0c0,0,0,0,0,0C85.1,4.8,85.1,4.8,85.2,4.8C85.2,4.8,85.2,4.8,85.2,4.8"/>
	<path class="st0" d="M79.8,1.4c0,0,0.1,0,0.1,0C79.9,1.4,79.9,1.4,79.8,1.4C79.8,1.4,79.8,1.4,79.8,1.4C79.8,1.4,79.8,1.4,79.8,1.4
		"/>
	<path class="st0" d="M65.9,11.9c0,0,0.1,0,0.1,0C66,12,66,12,65.9,11.9C66,12,65.9,12,65.9,11.9C65.9,12,65.9,12,65.9,11.9"/>
	<polygon class="st0" points="43,11.2 42.9,11.2 42.9,11.1 	"/>
	<path class="st0" d="M8.3,0.9C8.3,0.9,8.3,0.9,8.3,0.9C8.2,0.9,8.3,0.9,8.3,0.9C8.3,0.9,8.3,0.9,8.3,0.9C8.3,0.9,8.3,0.9,8.3,0.9"
		/>
	<path class="st0" d="M63.9,11.3c0,0,0.1,0,0.1,0c0,0,0,0,0,0C64,11.4,64,11.4,63.9,11.3C63.9,11.4,63.9,11.4,63.9,11.3"/>
	<polygon class="st0" points="7.6,1 7.7,1 7.7,1 	"/>
	<path class="st0" d="M65.7,10.6c0,0,0.1,0,0.1,0c0,0,0,0,0,0C65.8,10.6,65.7,10.6,65.7,10.6C65.7,10.6,65.7,10.6,65.7,10.6"/>
	<path class="st0" d="M23.2,0.3C23.2,0.3,23.3,0.3,23.2,0.3C23.2,0.3,23.2,0.3,23.2,0.3C23.2,0.3,23.2,0.3,23.2,0.3
		C23.2,0.3,23.2,0.3,23.2,0.3"/>
	<path class="st0" d="M87.6,4.7C87.6,4.8,87.6,4.8,87.6,4.7C87.6,4.8,87.5,4.8,87.6,4.7C87.5,4.8,87.5,4.8,87.6,4.7
		C87.5,4.8,87.5,4.8,87.6,4.7"/>
	<path class="st0" d="M83.8,1.5c0,0,0.1,0,0.1,0C83.9,1.6,83.8,1.6,83.8,1.5C83.8,1.6,83.8,1.6,83.8,1.5C83.7,1.6,83.8,1.5,83.8,1.5
		"/>
	<polygon class="st0" points="80,1.1 80,1.1 80,1.1 	"/>
	<path class="st0" d="M77.7,1c0,0,0.1,0,0.1,0C77.8,0.9,77.8,1,77.7,1C77.7,1,77.7,1,77.7,1"/>
	<path class="st0" d="M73.4,1.2C73.4,1.2,73.4,1.2,73.4,1.2C73.4,1.2,73.3,1.2,73.4,1.2C73.3,1.2,73.3,1.2,73.4,1.2
		C73.4,1.2,73.4,1.2,73.4,1.2"/>
</g>
</svg>
